{
  "accessors": [
    {
      "bufferView": 2,
      "componentType": 5126,
      "count": 528,
      "max": [
        32.497043609619141,
        43.290000915527344,
        15.972601890563965
      ],
      "min": [
        -43.290000915527344,
        -43.290000915527344,
        1.9072132110595703
      ],
      "type": "VEC3"
    },
    {
      "bufferView": 2,
      "byteOffset": 6336,
      "componentType": 5126,
      "count": 528,
      "max": [
        1,
        1,
        1
      ],
      "min": [
        -1,
        -1,
        -1
      ],
      "type": "VEC3"
    },
    {
      "bufferView": 1,
      "componentType": 5126,
      "count": 528,
      "max": [
        1,
        1
      ],
      "min": [
        0,
        0
      ],
      "type": "VEC2"
    },
    {
      "bufferView": 0,
      "componentType": 5125,
      "count": 1500,
      "max": [
        527
      ],
      "min": [
        0
      ],
      "type": "SCALAR"
    },
    {
      "bufferView": 2,
      "byteOffset": 12672,
      "componentType": 5126,
      "count": 1064,
      "max": [
        9.9471607208251953,
        -0.47836488485336304,
        3.5262987613677979
      ],
      "min": [
        -1.1571056842803955,
        -0.53051447868347168,
        -9.9757757186889648
      ],
      "type": "VEC3"
    },
    {
      "bufferView": 2,
      "byteOffset": 25440,
      "componentType": 5126,
      "count": 1064,
      "max": [
        1,
        0.99766135215759277,
        0.86602562665939331
      ],
      "min": [
        -1,
        -0.99766135215759277,
        -0.86602556705474854
      ],
      "type": "VEC3"
    },
    {
      "bufferView": 1,
      "byteOffset": 4224,
      "componentType": 5126,
      "count": 1064,
      "max": [
        1,
        1
      ],
      "min": [
        0,
        0
      ],
      "type": "VEC2"
    },
    {
      "bufferView": 0,
      "byteOffset": 6000,
      "componentType": 5125,
      "count": 2016,
      "max": [
        1063
      ],
      "min": [
        0
      ],
      "type": "SCALAR"
    },
    {
      "bufferView": 2,
      "byteOffset": 38208,
      "componentType": 5126,
      "count": 3612,
      "max": [
        -7.4318342208862305,
        11.327165603637695,
        25.090187072753906
      ],
      "min": [
        -32.122848510742188,
        -6.3828988075256348,
        -3.4041242599487305
      ],
      "type": "VEC3"
    },
    {
      "bufferView": 2,
      "byteOffset": 81552,
      "componentType": 5126,
      "count": 3612,
      "max": [
        1,
        1,
        1
      ],
      "min": [
        -1,
        -1,
        -1
      ],
      "type": "VEC3"
    },
    {
      "bufferView": 1,
      "byteOffset": 12736,
      "componentType": 5126,
      "count": 3612,
      "max": [
        0.99999994039535522,
        1
      ],
      "min": [
        0,
        0
      ],
      "type": "VEC2"
    },
    {
      "bufferView": 0,
      "byteOffset": 14064,
      "componentType": 5125,
      "count": 12096,
      "max": [
        3611
      ],
      "min": [
        0
      ],
      "type": "SCALAR"
    },
    {
      "bufferView": 2,
      "byteOffset": 124896,
      "componentType": 5126,
      "count": 608,
      "max": [
        7.4632658958435059,
        -0.47836500406265259,
        3.5262987613677979
      ],
      "min": [
        -1.1571056842803955,
        -0.53051447868347168,
        -7.8208217620849609
      ],
      "type": "VEC3"
    },
    {
      "bufferView": 2,
      "byteOffset": 132192,
      "componentType": 5126,
      "count": 608,
      "max": [
        1,
        0.997661292552948,
        0.86602550745010376
      ],
      "min": [
        -1,
        -0.997661292552948,
        -0.86602550745010376
      ],
      "type": "VEC3"
    },
    {
      "bufferView": 1,
      "byteOffset": 41632,
      "componentType": 5126,
      "count": 608,
      "max": [
        1,
        1
      ],
      "min": [
        0,
        0
      ],
      "type": "VEC2"
    },
    {
      "bufferView": 0,
      "byteOffset": 62448,
      "componentType": 5125,
      "count": 1152,
      "max": [
        607
      ],
      "min": [
        0
      ],
      "type": "SCALAR"
    },
    {
      "bufferView": 2,
      "byteOffset": 139488,
      "componentType": 5126,
      "count": 6536,
      "max": [
        11.888029098510742,
        22.478843688964844,
        27.627370834350586
      ],
      "min": [
        -10.583073616027832,
        0.1974327564239502,
        3.0522503852844238
      ],
      "type": "VEC3"
    },
    {
      "bufferView": 2,
      "byteOffset": 217920,
      "componentType": 5126,
      "count": 6536,
      "max": [
        1,
        1,
        1
      ],
      "min": [
        -1,
        -1,
        -1
      ],
      "type": "VEC3"
    },
    {
      "bufferView": 1,
      "byteOffset": 46496,
      "componentType": 5126,
      "count": 6536,
      "max": [
        0.99999994039535522,
        1
      ],
      "min": [
        0,
        0
      ],
      "type": "VEC2"
    },
    {
      "bufferView": 0,
      "byteOffset": 67056,
      "componentType": 5125,
      "count": 21888,
      "max": [
        6535
      ],
      "min": [
        0
      ],
      "type": "SCALAR"
    },
    {
      "bufferView": 2,
      "byteOffset": 296352,
      "componentType": 5126,
      "count": 2580,
      "max": [
        8.4861001968383789,
        7.9632272720336914,
        7.4903912544250488
      ],
      "min": [
        -6.661524772644043,
        -8.6421022415161133,
        -3.0372767448425293
      ],
      "type": "VEC3"
    },
    {
      "bufferView": 2,
      "byteOffset": 327312,
      "componentType": 5126,
      "count": 2580,
      "max": [
        1,
        1,
        1
      ],
      "min": [
        -1,
        -1,
        -1
      ],
      "type": "VEC3"
    },
    {
      "bufferView": 1,
      "byteOffset": 98784,
      "componentType": 5126,
      "count": 2580,
      "max": [
        0.99999994039535522,
        1
      ],
      "min": [
        0,
        0
      ],
      "type": "VEC2"
    },
    {
      "bufferView": 0,
      "byteOffset": 154608,
      "componentType": 5125,
      "count": 8640,
      "max": [
        2579
      ],
      "min": [
        0
      ],
      "type": "SCALAR"
    },
    {
      "bufferView": 3,
      "componentType": 5126,
      "count": 201,
      "max": [
        6.6666665077209473
      ],
      "min": [
        0
      ],
      "type": "SCALAR"
    },
    {
      "bufferView": 4,
      "componentType": 5126,
      "count": 201,
      "max": [
        1.3279357707090313e-16,
        0.99998420476913452,
        2.8292806262424954e-16,
        1
      ],
      "min": [
        -1.3441179381196307e-16,
        -0.85923045873641968,
        -2.5733877377122349e-16,
        -0.4980960488319397
      ],
      "type": "VEC4"
    }
  ],
  "animations": [
    {
      "channels": [
        {
          "sampler": 0,
          "target": {
            "node": 5,
            "path": "rotation"
          }
        }
      ],
      "name": "Take 001",
      "samplers": [
        {
          "input": 24,
          "interpolation": "LINEAR",
          "output": 25
        }
      ]
    }
  ],
  "asset": {
    "extras": {
      "author": "telsem (https://sketchfab.com/telsem)",
      "license": "CC-BY-4.0 (http://creativecommons.org/licenses/by/4.0/)",
      "source": "https://sketchfab.com/3d-models/essai-g-ebc7b3f2455749b4b3f3c599691bd80a",
      "title": "Essai G"
    },
    "generator": "Sketchfab-7.57.0",
    "version": "2.0"
  },
  "bufferViews": [
    {
      "buffer": 0,
      "byteLength": 189168,
      "byteOffset": 0,
      "name": "floatBufferViews",
      "target": 34963
    },
    {
      "buffer": 0,
      "byteLength": 119424,
      "byteOffset": 189168,
      "byteStride": 8,
      "name": "floatBufferViews",
      "target": 34962
    },
    {
      "buffer": 0,
      "byteLength": 358272,
      "byteOffset": 308592,
      "byteStride": 12,
      "name": "floatBufferViews",
      "target": 34962
    },
    {
      "buffer": 0,
      "byteLength": 804,
      "byteOffset": 666864,
      "name": "floatBufferViews"
    },
    {
      "buffer": 0,
      "byteLength": 3216,
      "byteOffset": 667668,
      "byteStride": 16,
      "name": "floatBufferViews"
    }
  ],
  "buffers": [
    {
      "byteLength": 670884,
      "uri": "scene.bin"
    }
  ],
  "materials": [
    {
      "doubleSided": true,
      "emissiveFactor": [
        0,
        0,
        0
      ],
      "name": "15_-_Default",
      "pbrMetallicRoughness": {
        "baseColorFactor": [
          0.22277795614702081,
          0.58634041215770105,
          0.86020767903272433,
          1
        ],
        "metallicFactor": 0,
        "roughnessFactor": 0.60881778805754905
      }
    }
  ],
  "meshes": [
    {
      "name": "Tube001_15 - Default_0",
      "primitives": [
        {
          "attributes": {
            "NORMAL": 1,
            "POSITION": 0,
            "TEXCOORD_0": 2
          },
          "indices": 3,
          "material": 0,
          "mode": 4
        }
      ]
    },
    {
      "name": "Tube002_15 - Default_0",
      "primitives": [
        {
          "attributes": {
            "NORMAL": 5,
            "POSITION": 4,
            "TEXCOORD_0": 6
          },
          "indices": 7,
          "material": 0,
          "mode": 4
        }
      ]
    },
    {
      "name": "Sphere050_15 - Default_0",
      "primitives": [
        {
          "attributes": {
            "NORMAL": 9,
            "POSITION": 8,
            "TEXCOORD_0": 10
          },
          "indices": 11,
          "material": 0,
          "mode": 4
        }
      ]
    },
    {
      "name": "Tube003_15 - Default_0",
      "primitives": [
        {
          "attributes": {
            "NORMAL": 13,
            "POSITION": 12,
            "TEXCOORD_0": 14
          },
          "indices": 15,
          "material": 0,
          "mode": 4
        }
      ]
    },
    {
      "name": "Object001_15 - Default_0",
      "primitives": [
        {
          "attributes": {
            "NORMAL": 17,
            "POSITION": 16,
            "TEXCOORD_0": 18
          },
          "indices": 19,
          "material": 0,
          "mode": 4
        }
      ]
    },
    {
      "name": "Object002_15 - Default_0",
      "primitives": [
        {
          "attributes": {
            "NORMAL": 21,
            "POSITION": 20,
            "TEXCOORD_0": 22
          },
          "indices": 23,
          "material": 0,
          "mode": 4
        }
      ]
    }
  ],
  "nodes": [
    {
      "children": [
        1
      ],
      "name": "RootNode (gltf orientation matrix)",
      "rotation": [
        -0.70710678118654746,
        -0,
        -0,
        0.70710678118654757
      ]
    },
    {
      "children": [
        2
      ],
      "name": "RootNode (model correction matrix)"
    },
    {
      "children": [
        3
      ],
      "matrix": [
        1,
        0,
        0,
        0,
        0,
        0,
        1,
        0,
        0,
        -1,
        0,
        0,
        0,
        0,
        0,
        1
      ],
      "name": "9003d890990e44d29b51d07a79cd405d.fbx"
    },
    {
      "children": [
        4
      ],
      "name": ""
    },
    {
      "children": [
        5,
        8,
        10,
        12,
        14,
        16
      ],
      "name": "RootNode"
    },
    {
      "children": [
        6
      ],
      "name": "Tube001",
      "rotation": [
        2.1855694143368964e-08,
        0,
        0,
        1
      ],
      "scale": [
        0.21102230250835419,
        0.21102230250835419,
        0.21246132254600525
      ],
      "translation": [
        13.159280776977539,
        50.259433746337891,
        16.833034515380859
      ]
    },
    {
      "children": [
        7
      ],
      "matrix": [
        1,
        0,
        -0,
        0,
        0,
        1,
        0,
        0,
        0,
        0,
        1,
        0,
        0,
        -3.9900712067719724e-07,
        -9.0663919448852539,
        1
      ],
      "name": ""
    },
    {
      "mesh": 0,
      "name": "Tube001_15 - Default_0"
    },
    {
      "children": [
        9
      ],
      "name": "Tube002",
      "rotation": [
        -0.7071068286895752,
        -0,
        0,
        0.7071068286895752
      ],
      "translation": [
        -3.1710662841796875,
        57.614418029785156,
        24.08228874206543
      ]
    },
    {
      "mesh": 1,
      "name": "Tube002_15 - Default_0"
    },
    {
      "children": [
        11
      ],
      "name": "Sphere050",
      "rotation": [
        -0.7071068286895752,
        -0,
        0,
        0.7071068286895752
      ],
      "translation": [
        21.310155868530273,
        37.724311828613281,
        27.139167785644531
      ]
    },
    {
      "mesh": 2,
      "name": "Sphere050_15 - Default_0"
    },
    {
      "children": [
        13
      ],
      "name": "Tube003",
      "rotation": [
        -0.7071068286895752,
        -0,
        0,
        0.7071068286895752
      ],
      "translation": [
        25.88800048828125,
        62.520912170410156,
        2.6489219665527344
      ]
    },
    {
      "mesh": 3,
      "name": "Tube003_15 - Default_0"
    },
    {
      "children": [
        15
      ],
      "name": "Object001",
      "rotation": [
        -0.7071068286895752,
        -0,
        0,
        0.7071068286895752
      ],
      "translation": [
        21.310155868530273,
        37.724311828613281,
        27.139167785644531
      ]
    },
    {
      "mesh": 4,
      "name": "Object001_15 - Default_0"
    },
    {
      "children": [
        17
      ],
      "name": "Object002",
      "rotation": [
        -0.7071068286895752,
        -0,
        0,
        0.7071068286895752
      ],
      "translation": [
        21.310155868530273,
        37.724311828613281,
        27.139167785644531
      ]
    },
    {
      "mesh": 5,
      "name": "Object002_15 - Default_0"
    }
  ],
  "scene": 0,
  "scenes": [
    {
      "name": "OSG_Scene",
      "nodes": [
        0
      ]
    }
  ]
}

